<svg width="18" height="16" viewBox="0 0 18 16" fill="none" xmlns="http://www.w3.org/2000/svg">
<path fill-rule="evenodd" clip-rule="evenodd" d="M0.73243 1.51999H16.8326C17.002 1.51999 17.139 1.65526 17.139 1.82202C17.139 1.98878 17.002 2.12387 16.8326 2.12387H0.73243C0.563072 2.12387 0.426025 1.98897 0.426025 1.82202C0.426025 1.65508 0.563072 1.51999 0.73243 1.51999ZM4.91068 5.63863H16.8326C17.002 5.63863 17.139 5.77391 17.139 5.94067C17.139 6.10743 17.002 6.24252 16.8326 6.24252H4.91068C4.74132 6.24252 4.60428 6.10743 4.60428 5.94067C4.60428 5.77391 4.74132 5.63863 4.91068 5.63863ZM16.8326 9.75728H0.73243C0.563072 9.75728 0.426025 9.89237 0.426025 10.0593C0.426025 10.2261 0.563072 10.3613 0.73243 10.3613H16.8326C17.002 10.3613 17.139 10.2261 17.139 10.0593C17.139 9.89237 17.002 9.75728 16.8326 9.75728ZM4.91068 13.8757H16.8326C17.002 13.8757 17.139 14.0108 17.139 14.1778C17.139 14.3447 17.002 14.48 16.8326 14.48H4.91068C4.74132 14.48 4.60428 14.3447 4.60428 14.1778C4.60428 14.0108 4.74132 13.8757 4.91068 13.8757Z" fill="#1F263E"/>
</svg>
