<svg width="21" height="19" viewBox="0 0 21 19" fill="none" xmlns="http://www.w3.org/2000/svg">
<path d="M11.2405 8.4346H15.5742C16.5855 8.4346 17.0912 8.4346 17.4775 8.63141C17.8172 8.80453 18.0935 9.08077 18.2666 9.42054C18.4634 9.80681 18.4634 10.3125 18.4634 11.3238V17.4633M11.2405 17.4633V4.10084C11.2405 3.08954 11.2405 2.58388 11.0437 2.19762C10.8706 1.85785 10.5943 1.5816 10.2545 1.40848C9.86827 1.21167 9.36262 1.21167 8.35131 1.21167H5.101C4.08969 1.21167 3.58404 1.21167 3.19777 1.40848C2.858 1.5816 2.58176 1.85785 2.40864 2.19762C2.21183 2.58388 2.21183 3.08954 2.21183 4.10084V17.4633M19.3663 17.4633H1.30896M5.37186 4.82313H8.08046M5.37186 8.4346H8.08046M5.37186 12.0461H8.08046" stroke="#414651" stroke-width="1.80573" stroke-linecap="round" stroke-linejoin="round"/>
</svg>
