<svg width="17" height="19" viewBox="0 0 17 19" fill="none" xmlns="http://www.w3.org/2000/svg">
<path d="M7.79333 0.903902C7.79333 0.517548 8.10654 0.204346 8.49289 0.204346C8.87924 0.204346 9.19245 0.517547 9.19245 0.903902V3.43027L10.4134 2.34491C10.7002 2.09003 11.1422 2.11319 11.4007 2.39665C11.6592 2.6801 11.6364 3.1165 11.3496 3.37138L9.19245 5.28892V8.42166L12.087 6.77185L12.6511 4.1518C12.7315 3.77846 13.103 3.5401 13.4809 3.6194C13.8588 3.6987 14.1 4.06564 14.0196 4.43898L13.7174 5.84252L15.7651 4.6754C16.0975 4.48591 16.5236 4.60007 16.7168 4.93039C16.91 5.26071 16.7971 5.6821 16.4646 5.87159L14.2508 7.13346L15.7889 7.62685C16.1566 7.74479 16.3579 8.13447 16.2385 8.49723C16.1191 8.85998 15.7242 9.05844 15.3566 8.94049L12.6203 8.06278L9.94424 9.58808L12.8314 11.2337L15.3887 10.4134C15.7564 10.2955 16.1512 10.4939 16.2706 10.8567C16.39 11.2194 16.1887 11.6091 15.821 11.7271L14.4619 12.163L16.4955 13.3221C16.8279 13.5116 16.9408 13.933 16.7476 14.2633C16.5545 14.5936 16.1283 14.7078 15.7959 14.5183L13.568 13.2485L13.9093 14.8336C13.9897 15.207 13.7485 15.5739 13.3706 15.6532C12.9927 15.7325 12.6211 15.4942 12.5408 15.1208L11.9375 12.3191L9.19245 10.7545V14.1103L11.2097 15.9034C11.4964 16.1583 11.5193 16.5947 11.2608 16.8782C11.0023 17.1616 10.5603 17.1848 10.2735 16.9299L9.19245 15.9689V18.2897C9.19245 18.6761 8.87924 18.9893 8.49289 18.9893C8.10654 18.9893 7.79333 18.6761 7.79333 18.2897V15.7795L6.59041 16.8488C6.30368 17.1036 5.86166 17.0805 5.60314 16.797C5.34462 16.5136 5.36749 16.0772 5.65422 15.8223L7.79333 13.9208V10.814L4.85383 12.4895L4.29481 15.0859C4.21443 15.4592 3.84291 15.6976 3.465 15.6183C3.08708 15.539 2.84589 15.172 2.92627 14.7987L3.22337 13.4188L1.18989 14.5779C0.85744 14.7674 0.431336 14.6532 0.238159 14.3229C0.0449816 13.9925 0.157884 13.5712 0.490333 13.3817L2.7183 12.1118L1.15698 11.6109C0.789284 11.493 0.587995 11.1033 0.707385 10.7406C0.826775 10.3778 1.22163 10.1794 1.58932 10.2973L4.34876 11.1825L7.14602 9.58808L4.19919 7.90846L1.61889 8.73614C1.2512 8.85409 0.856345 8.65563 0.736955 8.29288C0.617565 7.93012 0.818853 7.54044 1.18654 7.4225L2.56874 6.97913L0.521143 5.81205C0.188693 5.62256 0.0757907 5.20117 0.268968 4.87085C0.462145 4.54053 0.888249 4.42636 1.2207 4.61585L3.43452 5.87768L3.09827 4.31596C3.01789 3.94262 3.25908 3.57569 3.637 3.49639C4.01491 3.41708 4.38643 3.65545 4.46681 4.02878L5.06498 6.80701L7.79333 8.36211V5.06728L5.79414 3.29019C5.50741 3.03531 5.48454 2.59891 5.74306 2.31546C6.00159 2.03201 6.4436 2.00884 6.73033 2.26372L7.79333 3.20863V0.903902Z" fill="#0EA5E9"/>
</svg>
