<svg width="14" height="15" viewBox="0 0 14 15" fill="none" xmlns="http://www.w3.org/2000/svg">
<path d="M4.08333 8.72351C4.08333 8.88053 4.02187 9.03112 3.91248 9.14215C3.80308 9.25318 3.65471 9.31556 3.5 9.31556H2.91667C2.76196 9.31556 2.61358 9.25318 2.50419 9.14215C2.39479 9.03112 2.33333 8.88053 2.33333 8.72351C2.33333 8.56648 2.39479 8.41589 2.50419 8.30486C2.61358 8.19383 2.76196 8.13145 2.91667 8.13145H3.5C3.65471 8.13145 3.80308 8.19383 3.91248 8.30486C4.02187 8.41589 4.08333 8.56648 4.08333 8.72351ZM6.41667 8.13145H5.83333C5.67862 8.13145 5.53025 8.19383 5.42085 8.30486C5.31146 8.41589 5.25 8.56648 5.25 8.72351C5.25 8.88053 5.31146 9.03112 5.42085 9.14215C5.53025 9.25318 5.67862 9.31556 5.83333 9.31556H6.41667C6.57138 9.31556 6.71975 9.25318 6.82915 9.14215C6.93854 9.03112 7 8.88053 7 8.72351C7 8.56648 6.93854 8.41589 6.82915 8.30486C6.71975 8.19383 6.57138 8.13145 6.41667 8.13145ZM3.5 10.4997H2.91667C2.76196 10.4997 2.61358 10.562 2.50419 10.6731C2.39479 10.7841 2.33333 10.9347 2.33333 11.0917C2.33333 11.2487 2.39479 11.3993 2.50419 11.5104C2.61358 11.6214 2.76196 11.6838 2.91667 11.6838H3.5C3.65471 11.6838 3.80308 11.6214 3.91248 11.5104C4.02187 11.3993 4.08333 11.2487 4.08333 11.0917C4.08333 10.9347 4.02187 10.7841 3.91248 10.6731C3.80308 10.562 3.65471 10.4997 3.5 10.4997ZM6.41667 10.4997H5.83333C5.67862 10.4997 5.53025 10.562 5.42085 10.6731C5.31146 10.7841 5.25 10.9347 5.25 11.0917C5.25 11.2487 5.31146 11.3993 5.42085 11.5104C5.53025 11.6214 5.67862 11.6838 5.83333 11.6838H6.41667C6.57138 11.6838 6.71975 11.6214 6.82915 11.5104C6.93854 11.3993 7 11.2487 7 11.0917C7 10.9347 6.93854 10.7841 6.82915 10.6731C6.71975 10.562 6.57138 10.4997 6.41667 10.4997ZM3.5 3.39504H2.91667C2.76196 3.39504 2.61358 3.45742 2.50419 3.56845C2.39479 3.67948 2.33333 3.83007 2.33333 3.98709C2.33333 4.14412 2.39479 4.29471 2.50419 4.40574C2.61358 4.51677 2.76196 4.57915 2.91667 4.57915H3.5C3.65471 4.57915 3.80308 4.51677 3.91248 4.40574C4.02187 4.29471 4.08333 4.14412 4.08333 3.98709C4.08333 3.83007 4.02187 3.67948 3.91248 3.56845C3.80308 3.45742 3.65471 3.39504 3.5 3.39504ZM6.41667 3.39504H5.83333C5.67862 3.39504 5.53025 3.45742 5.42085 3.56845C5.31146 3.67948 5.25 3.83007 5.25 3.98709C5.25 4.14412 5.31146 4.29471 5.42085 4.40574C5.53025 4.51677 5.67862 4.57915 5.83333 4.57915H6.41667C6.57138 4.57915 6.71975 4.51677 6.82915 4.40574C6.93854 4.29471 7 4.14412 7 3.98709C7 3.83007 6.93854 3.67948 6.82915 3.56845C6.71975 3.45742 6.57138 3.39504 6.41667 3.39504ZM3.5 5.76325H2.91667C2.76196 5.76325 2.61358 5.82563 2.50419 5.93666C2.39479 6.04769 2.33333 6.19828 2.33333 6.3553C2.33333 6.51232 2.39479 6.66291 2.50419 6.77394C2.61358 6.88497 2.76196 6.94735 2.91667 6.94735H3.5C3.65471 6.94735 3.80308 6.88497 3.91248 6.77394C4.02187 6.66291 4.08333 6.51232 4.08333 6.3553C4.08333 6.19828 4.02187 6.04769 3.91248 5.93666C3.80308 5.82563 3.65471 5.76325 3.5 5.76325ZM6.41667 5.76325H5.83333C5.67862 5.76325 5.53025 5.82563 5.42085 5.93666C5.31146 6.04769 5.25 6.19828 5.25 6.3553C5.25 6.51232 5.31146 6.66291 5.42085 6.77394C5.53025 6.88497 5.67862 6.94735 5.83333 6.94735H6.41667C6.57138 6.94735 6.71975 6.88497 6.82915 6.77394C6.93854 6.66291 7 6.51232 7 6.3553C7 6.19828 6.93854 6.04769 6.82915 5.93666C6.71975 5.82563 6.57138 5.76325 6.41667 5.76325ZM14 6.3553V11.6838C13.9991 12.4686 13.6915 13.221 13.1447 13.7759C12.5979 14.3309 11.8566 14.6431 11.0833 14.644H2.91667C2.1434 14.6431 1.40208 14.3309 0.855295 13.7759C0.308514 13.221 0.00092625 12.4686 0 11.6838L0 3.39504C0.00092625 2.61022 0.308514 1.85781 0.855295 1.30286C1.40208 0.747909 2.1434 0.435724 2.91667 0.434784L6.41667 0.434784C7.18993 0.435724 7.93126 0.747909 8.47804 1.30286C9.02482 1.85781 9.33241 2.61022 9.33333 3.39504H11.0833C11.8566 3.39598 12.5979 3.70817 13.1447 4.26312C13.6915 4.81807 13.9991 5.57048 14 6.3553ZM2.91667 13.4599H8.16667V3.39504C8.16667 2.92398 7.98229 2.4722 7.6541 2.13911C7.32591 1.80602 6.8808 1.61889 6.41667 1.61889H2.91667C2.45254 1.61889 2.00742 1.80602 1.67923 2.13911C1.35104 2.4722 1.16667 2.92398 1.16667 3.39504V11.6838C1.16667 12.1548 1.35104 12.6066 1.67923 12.9397C2.00742 13.2728 2.45254 13.4599 2.91667 13.4599ZM12.8333 6.3553C12.8333 5.88423 12.649 5.43246 12.3208 5.09937C11.9926 4.76628 11.5475 4.57915 11.0833 4.57915H9.33333V13.4599H11.0833C11.5475 13.4599 11.9926 13.2728 12.3208 12.9397C12.649 12.6066 12.8333 12.1548 12.8333 11.6838V6.3553ZM11.0833 8.13145C10.968 8.13145 10.8552 8.16618 10.7592 8.23123C10.6633 8.29629 10.5886 8.38875 10.5444 8.49694C10.5003 8.60512 10.4887 8.72416 10.5112 8.83901C10.5337 8.95386 10.5893 9.05935 10.6709 9.14215C10.7524 9.22495 10.8564 9.28134 10.9695 9.30418C11.0827 9.32703 11.2 9.3153 11.3066 9.27049C11.4132 9.22568 11.5043 9.1498 11.5684 9.05243C11.6325 8.95507 11.6667 8.8406 11.6667 8.72351C11.6667 8.56648 11.6052 8.41589 11.4958 8.30486C11.3864 8.19383 11.238 8.13145 11.0833 8.13145ZM11.0833 10.4997C10.968 10.4997 10.8552 10.5344 10.7592 10.5994C10.6633 10.6645 10.5886 10.757 10.5444 10.8651C10.5003 10.9733 10.4887 11.0924 10.5112 11.2072C10.5337 11.3221 10.5893 11.4276 10.6709 11.5104C10.7524 11.5932 10.8564 11.6495 10.9695 11.6724C11.0827 11.6952 11.2 11.6835 11.3066 11.6387C11.4132 11.5939 11.5043 11.518 11.5684 11.4206C11.6325 11.3233 11.6667 11.2088 11.6667 11.0917C11.6667 10.9347 11.6052 10.7841 11.4958 10.6731C11.3864 10.562 11.238 10.4997 11.0833 10.4997ZM11.0833 5.76325C10.968 5.76325 10.8552 5.79797 10.7592 5.86303C10.6633 5.92808 10.5886 6.02055 10.5444 6.12873C10.5003 6.23692 10.4887 6.35596 10.5112 6.4708C10.5337 6.58565 10.5893 6.69114 10.6709 6.77394C10.7524 6.85674 10.8564 6.91313 10.9695 6.93598C11.0827 6.95882 11.2 6.9471 11.3066 6.90228C11.4132 6.85747 11.5043 6.78159 11.5684 6.68423C11.6325 6.58686 11.6667 6.4724 11.6667 6.3553C11.6667 6.19828 11.6052 6.04769 11.4958 5.93666C11.3864 5.82563 11.238 5.76325 11.0833 5.76325Z" fill="#A6ABC8"/>
</svg>
