<svg width="18" height="19" viewBox="0 0 18 19" fill="none" xmlns="http://www.w3.org/2000/svg">
<g clip-path="url(#clip0_4353_33751)">
<path d="M14.6513 3.26409L13.4093 2.02059C13.0618 1.67133 12.6484 1.39445 12.1932 1.20597C11.738 1.0175 11.2499 0.921185 10.7573 0.922592H6C5.0058 0.923783 4.05267 1.31925 3.34967 2.02226C2.64666 2.72526 2.25119 3.6784 2.25 4.67259V15.1726C2.25119 16.1668 2.64666 17.1199 3.34967 17.8229C4.05267 18.5259 5.0058 18.9214 6 18.9226H12C12.9942 18.9214 13.9473 18.5259 14.6503 17.8229C15.3533 17.1199 15.7488 16.1668 15.75 15.1726V5.91534C15.7512 5.42273 15.6547 4.93477 15.4661 4.47969C15.2775 4.02461 15.0006 3.61144 14.6513 3.26409ZM13.5908 4.32459C13.6971 4.43058 13.7924 4.54719 13.875 4.67259H12V2.79759C12.1252 2.88108 12.242 2.97653 12.3488 3.08259L13.5908 4.32459ZM14.25 15.1726C14.25 15.7693 14.0129 16.3416 13.591 16.7636C13.169 17.1855 12.5967 17.4226 12 17.4226H6C5.40326 17.4226 4.83097 17.1855 4.40901 16.7636C3.98705 16.3416 3.75 15.7693 3.75 15.1726V4.67259C3.75 4.07586 3.98705 3.50356 4.40901 3.0816C4.83097 2.65965 5.40326 2.42259 6 2.42259H10.5V4.67259C10.5 5.07042 10.658 5.45195 10.9393 5.73325C11.2206 6.01456 11.6022 6.17259 12 6.17259H14.25V15.1726ZM12 7.67259C12.1989 7.67259 12.3897 7.75161 12.5303 7.89226C12.671 8.03292 12.75 8.22368 12.75 8.42259C12.75 8.62151 12.671 8.81227 12.5303 8.95292C12.3897 9.09358 12.1989 9.17259 12 9.17259H6C5.80109 9.17259 5.61032 9.09358 5.46967 8.95292C5.32902 8.81227 5.25 8.62151 5.25 8.42259C5.25 8.22368 5.32902 8.03292 5.46967 7.89226C5.61032 7.75161 5.80109 7.67259 6 7.67259H12ZM12.75 11.4226C12.75 11.6215 12.671 11.8123 12.5303 11.9529C12.3897 12.0936 12.1989 12.1726 12 12.1726H6C5.80109 12.1726 5.61032 12.0936 5.46967 11.9529C5.32902 11.8123 5.25 11.6215 5.25 11.4226C5.25 11.2237 5.32902 11.0329 5.46967 10.8923C5.61032 10.7516 5.80109 10.6726 6 10.6726H12C12.1989 10.6726 12.3897 10.7516 12.5303 10.8923C12.671 11.0329 12.75 11.2237 12.75 11.4226ZM12.606 13.9823C12.7226 14.1427 12.7709 14.3428 12.7404 14.5387C12.7099 14.7346 12.6031 14.9105 12.4433 15.0278C11.6834 15.5693 10.7834 15.88 9.85125 15.9226C9.30666 15.92 8.77862 15.7352 8.35125 15.3976C8.10525 15.2288 8.0115 15.1726 7.82625 15.1726C7.32482 15.2502 6.85171 15.4552 6.45225 15.7681C6.29381 15.881 6.09768 15.928 5.90527 15.899C5.71286 15.8701 5.53924 15.7675 5.42106 15.6129C5.30289 15.4583 5.24942 15.2639 5.27194 15.0706C5.29445 14.8773 5.3912 14.7004 5.54175 14.5771C6.20263 14.064 6.99621 13.7503 7.82925 13.6726C8.32885 13.6806 8.81184 13.8533 9.20325 14.1638C9.38166 14.3243 9.61138 14.416 9.85125 14.4226C10.4645 14.3767 11.0542 14.1671 11.559 13.8158C11.72 13.6992 11.9206 13.6512 12.117 13.6824C12.3133 13.7136 12.4892 13.8215 12.606 13.9823Z" fill="#A6ABC8"/>
</g>
<defs>
<clipPath id="clip0_4353_33751">
<rect width="18" height="18" fill="white" transform="translate(0 0.922546)"/>
</clipPath>
</defs>
</svg>
