<svg width="14" height="14" viewBox="0 0 14 14" fill="none" xmlns="http://www.w3.org/2000/svg">
<path d="M11.0833 1.09952H10.5V0.549762C10.5 0.403956 10.4385 0.264122 10.3291 0.161022C10.2197 0.0579212 10.0714 0 9.91667 0C9.76196 0 9.61358 0.0579212 9.50419 0.161022C9.39479 0.264122 9.33333 0.403956 9.33333 0.549762V1.09952H4.66667V0.549762C4.66667 0.403956 4.60521 0.264122 4.49581 0.161022C4.38642 0.0579212 4.23804 0 4.08333 0C3.92862 0 3.78025 0.0579212 3.67085 0.161022C3.56146 0.264122 3.5 0.403956 3.5 0.549762V1.09952H2.91667C2.1434 1.1004 1.40208 1.39028 0.855295 1.9056C0.308514 2.42091 0.00092625 3.11957 0 3.84834L0 10.4455C0.00092625 11.1742 0.308514 11.8729 0.855295 12.3882C1.40208 12.9035 2.1434 13.1934 2.91667 13.1943H11.0833C11.8566 13.1934 12.5979 12.9035 13.1447 12.3882C13.6915 11.8729 13.9991 11.1742 14 10.4455V3.84834C13.9991 3.11957 13.6915 2.42091 13.1447 1.9056C12.5979 1.39028 11.8566 1.1004 11.0833 1.09952ZM1.16667 3.84834C1.16667 3.41092 1.35104 2.99141 1.67923 2.68211C2.00742 2.37281 2.45254 2.19905 2.91667 2.19905H11.0833C11.5475 2.19905 11.9926 2.37281 12.3208 2.68211C12.649 2.99141 12.8333 3.41092 12.8333 3.84834V4.3981H1.16667V3.84834ZM11.0833 12.0948H2.91667C2.45254 12.0948 2.00742 11.921 1.67923 11.6117C1.35104 11.3024 1.16667 10.8829 1.16667 10.4455V5.49762H12.8333V10.4455C12.8333 10.8829 12.649 11.3024 12.3208 11.6117C11.9926 11.921 11.5475 12.0948 11.0833 12.0948Z" fill="#A6ABC8"/>
</svg>
