<svg width="14" height="14" viewBox="0 0 14 14" fill="none" xmlns="http://www.w3.org/2000/svg">
<path d="M3.4898 1V2.49388M10.4613 1V2.49388M1 11.4572V3.98776C1 3.59156 1.15739 3.21159 1.43755 2.93143C1.71771 2.65127 2.09768 2.49388 2.49388 2.49388H11.4572C11.8534 2.49388 12.2334 2.65127 12.5135 2.93143C12.7937 3.21159 12.9511 3.59156 12.9511 3.98776V11.4572M1 11.4572C1 11.8534 1.15739 12.2334 1.43755 12.5135C1.71771 12.7937 2.09768 12.9511 2.49388 12.9511H11.4572C11.8534 12.9511 12.2334 12.7937 12.5135 12.5135C12.7937 12.2334 12.9511 11.8534 12.9511 11.4572M1 11.4572V6.47757C1 6.08137 1.15739 5.70139 1.43755 5.42123C1.71771 5.14108 2.09768 4.98369 2.49388 4.98369H11.4572C11.8534 4.98369 12.2334 5.14108 12.5135 5.42123C12.7937 5.70139 12.9511 6.08137 12.9511 6.47757V11.4572" stroke="black" stroke-width="0.995922" stroke-linecap="round" stroke-linejoin="round"/>
</svg>
